<svg xmlns="http://www.w3.org/2000/svg" viewBox="0 0 900 1125" role="img" aria-label="Memory photo placeholder 1"><defs><linearGradient id="bg" x1="0" x2="1" y1="0" y2="1"><stop stop-color="#22101b"/><stop offset=".55" stop-color="#421428"/><stop offset="1" stop-color="#100b17"/></linearGradient><radialGradient id="glow" cx=".5" cy=".35" r=".55"><stop stop-color="#ffb6c8" stop-opacity=".7"/><stop offset="1" stop-color="#ffb6c8" stop-opacity="0"/></radialGradient></defs><rect width="900" height="1125" fill="url(#bg)"/><circle cx="450" cy="390" r="315" fill="url(#glow)"/><rect x="170" y="180" width="560" height="670" rx="46" fill="#fff" opacity=".08" stroke="#fff" stroke-opacity=".24"/><path d="M450 360 C525 275 670 335 650 465 C632 610 450 700 450 700 C450 700 268 610 250 465 C230 335 375 275 450 360Z" fill="#d9365f"/><path d="M285 750 C380 640 520 640 615 750 C520 835 380 835 285 750Z" fill="#ff9fbc" opacity=".86"/><circle cx="330" cy="208" r="14" fill="#fff2b8" opacity=".85"/><text x="450" y="975" text-anchor="middle" fill="#fff9fb" font-family="Georgia,serif" font-size="54">Memory Photo</text></svg>